<?xml version="1.0" encoding="UTF-8"?>
<svg version="1.1" xmlns="http://www.w3.org/2000/svg" width="1092" height="778">
<path d="M0 0 C4.99877131 2.81748928 8.60533165 6.44099496 10.4375 11.9375 C11.21027834 19.81983904 8.03605408 24.87401731 3.4375 30.9375 C14.57430917 31.03221506 25.65353633 30.75928963 36.77734375 30.23828125 C38.46325912 30.1619848 40.14918794 30.08598534 41.83512878 30.01025391 C46.39624331 29.80436341 50.95713073 29.59379752 55.51798248 29.38217545 C59.36915449 29.204007 63.22044335 29.02843686 67.07173157 28.85280132 C80.86075603 28.22368201 94.64918366 27.58192805 108.4375 26.9375 C110.16655201 26.85674225 110.16655201 26.85674225 111.93053436 26.77435303 C128.64404344 25.99358647 145.35728291 25.20722017 162.07027054 24.41537094 C165.54853351 24.25066137 169.02681386 24.08632257 172.50509644 23.92202759 C178.01679502 23.66148854 183.52841245 23.39929062 189.03997231 23.13583374 C191.06515588 23.03921676 193.09036141 22.94305862 195.11559105 22.84741211 C205.17484561 22.37187272 215.22528984 21.8624688 225.27009583 21.1391449 C230.51281073 20.80538051 235.7479778 20.71480096 241 20.6875 C242.02673828 20.666875 243.05347656 20.64625 244.11132812 20.625 C251.33460874 20.5875979 255.71258889 21.51535679 261.25 26.4375 C264.977544 30.69755028 264.77605112 34.78165675 264.71875 40.2109375 C264.20032404 45.2367892 261.595468 47.84047768 258.0625 51.1875 C252.95774979 54.59066681 247.81696887 55.26343996 241.804245 55.49949646 C241.05433204 55.53584058 240.30441908 55.57218471 239.53178149 55.60963017 C237.02629609 55.72896019 234.52044024 55.83602059 232.0144043 55.94311523 C230.21077122 56.02647837 228.40717282 56.11059445 226.60360718 56.19540405 C221.68839221 56.42433682 216.77275272 56.64255712 211.85696769 56.85885501 C206.63645125 57.09032495 201.41637751 57.33139622 196.19624329 57.57130432 C187.35837348 57.97613856 178.52023791 58.37466366 169.68188477 58.76879883 C157.49783501 59.31214195 145.31431498 59.86665999 133.13088202 60.42363811 C99.47221332 61.96104245 65.81307523 63.48942059 32.14697266 64.85595703 C31.28033403 64.89119213 30.41369539 64.92642722 29.52079499 64.96273005 C21.45010085 65.29057027 13.37931504 65.61561186 5.30804777 65.92905283 C2.46647312 66.03981499 -0.37501168 66.15277556 -3.21648431 66.26612163 C-5.10926767 66.34072769 -7.00217896 66.41206638 -8.89509392 66.48325539 C-20.77692044 66.19495082 -20.77692044 66.19495082 -31.41015625 70.0546875 C-32.50650391 71.41980469 -32.50650391 71.41980469 -33.625 72.8125 C-34.45128906 73.81023437 -35.27757812 74.80796875 -36.12890625 75.8359375 C-36.93199219 76.85945313 -37.73507812 77.88296875 -38.5625 78.9375 C-40.06068006 80.77232087 -41.56063223 82.60569643 -43.0625 84.4375 C-44.16078125 85.79875 -44.16078125 85.79875 -45.28125 87.1875 C-47.62968968 90.01849578 -50.07159902 92.73133598 -52.5625 95.4375 C-56.67628909 99.9073512 -60.53337297 104.52794893 -64.34765625 109.25390625 C-67.22730887 112.74300916 -70.26943876 116.06746921 -73.31640625 119.41015625 C-75.62437598 122.00712393 -77.81805863 124.67154013 -80 127.375 C-83.86075137 132.148903 -87.93687075 136.67138428 -92.09375 141.1875 C-94.50628104 143.87487634 -96.7950621 146.62715444 -99.0625 149.4375 C-102.11598679 153.22210334 -105.26918301 156.85957537 -108.5625 160.4375 C-112.67628909 164.9073512 -116.53337297 169.52794893 -120.34765625 174.25390625 C-123.22730887 177.74300916 -126.26943876 181.06746921 -129.31640625 184.41015625 C-131.62437598 187.00712393 -133.81805863 189.67154013 -136 192.375 C-139.86075137 197.148903 -143.93687075 201.67138428 -148.09375 206.1875 C-150.50628104 208.87487634 -152.7950621 211.62715444 -155.0625 214.4375 C-158.11598679 218.22210334 -161.26918301 221.85957537 -164.5625 225.4375 C-168.67628909 229.9073512 -172.53337297 234.52794893 -176.34765625 239.25390625 C-179.22730887 242.74300916 -182.26943876 246.06746921 -185.31640625 249.41015625 C-187.62437598 252.00712393 -189.81805863 254.67154013 -192 257.375 C-195.85958603 262.14746203 -199.93449991 266.66859109 -204.08984375 271.18359375 C-207.30959519 274.76957284 -210.32155176 278.50451492 -213.34765625 282.25390625 C-216.22730887 285.74300916 -219.26943876 289.06746921 -222.31640625 292.41015625 C-224.62437598 295.00712393 -226.81805863 297.67154013 -229 300.375 C-232.86075137 305.148903 -236.93687075 309.67138428 -241.09375 314.1875 C-243.50628104 316.87487634 -245.7950621 319.62715444 -248.0625 322.4375 C-251.11598679 326.22210334 -254.26918301 329.85957537 -257.5625 333.4375 C-261.67628909 337.9073512 -265.53337297 342.52794893 -269.34765625 347.25390625 C-272.22730887 350.74300916 -275.26943876 354.06746921 -278.31640625 357.41015625 C-280.62437598 360.00712393 -282.81805863 362.67154013 -285 365.375 C-288.86075137 370.148903 -292.93687075 374.67138428 -297.09375 379.1875 C-299.50628104 381.87487634 -301.7950621 384.62715444 -304.0625 387.4375 C-307.11598679 391.22210334 -310.26918301 394.85957537 -313.5625 398.4375 C-317.67628909 402.9073512 -321.53337297 407.52794893 -325.34765625 412.25390625 C-328.22730887 415.74300916 -331.26943876 419.06746921 -334.31640625 422.41015625 C-336.62437598 425.00712393 -338.81805863 427.67154013 -341 430.375 C-344.85958603 435.14746203 -348.93449991 439.66859109 -353.08984375 444.18359375 C-356.30959519 447.76957284 -359.32155176 451.50451492 -362.34765625 455.25390625 C-365.22730887 458.74300916 -368.26943876 462.06746921 -371.31640625 465.41015625 C-373.62437598 468.00712393 -375.81805863 470.67154013 -378 473.375 C-381.8550633 478.14186957 -385.91909246 482.66160069 -390.08203125 487.16015625 C-392.59939587 489.97881175 -394.92209795 492.89892148 -397.25 495.875 C-401.83962005 501.5113755 -405.05505074 504.49210962 -412.5 505.4375 C-418.40739813 505.1048504 -423.02207697 502.59641711 -427 498.3125 C-430.44926812 493.06961245 -430.65661454 488.09097639 -429.5625 481.9375 C-427.50035668 478.33264493 -424.87537358 475.46352055 -422.00878906 472.47265625 C-419.89214299 470.22595293 -417.89791181 467.87958473 -415.8894043 465.53637695 C-414.23124501 463.60313361 -412.56064472 461.68131862 -410.88671875 459.76171875 C-407.75957968 456.16982055 -404.65731234 452.55725649 -401.5625 448.9375 C-397.41407313 444.08820049 -393.24575538 439.25678411 -389.0625 434.4375 C-382.86524488 427.29688391 -376.70860246 420.12215178 -370.5625 412.9375 C-363.87281366 405.11741121 -357.16417166 397.31483785 -350.41821289 389.54321289 C-346.7843019 385.35432429 -343.16751281 381.15127487 -339.5625 376.9375 C-335.41390131 372.08834639 -331.24575656 367.25678547 -327.0625 362.4375 C-320.86524488 355.29688391 -314.70860246 348.12215178 -308.5625 340.9375 C-301.87348326 333.11819397 -295.16501244 325.31684454 -288.42041016 317.54541016 C-282.77242892 311.03395732 -277.16568688 304.48749602 -271.5625 297.9375 C-264.87281366 290.11741121 -258.16417166 282.31483785 -251.41821289 274.54321289 C-247.7843019 270.35432429 -244.16751281 266.15127487 -240.5625 261.9375 C-236.41390131 257.08834639 -232.24575656 252.25678547 -228.0625 247.4375 C-221.86524488 240.29688391 -215.70860246 233.12215178 -209.5625 225.9375 C-202.87281366 218.11741121 -196.16417166 210.31483785 -189.41821289 202.54321289 C-185.7843019 198.35432429 -182.16751281 194.15127487 -178.5625 189.9375 C-174.41390131 185.08834639 -170.24575656 180.25678547 -166.0625 175.4375 C-159.86524488 168.29688391 -153.70860246 161.12215178 -147.5625 153.9375 C-140.87281366 146.11741121 -134.16417166 138.31483785 -127.41821289 130.54321289 C-123.7843019 126.35432429 -120.16751281 122.15127487 -116.5625 117.9375 C-112.4139007 113.08834567 -108.24566334 108.256867 -104.0625 103.4375 C-99.82279749 98.55068833 -95.58990854 93.65822248 -91.375 88.75 C-90.71757813 87.98623047 -90.71757813 87.98623047 -90.046875 87.20703125 C-86.78462753 83.40266102 -83.57228 79.55734558 -80.3659668 75.70581055 C-79.90320091 75.15019188 -79.44043503 74.59457321 -78.96364594 74.02211761 C-77.82978135 72.66070272 -76.69612016 71.29911843 -75.5625 69.9375 C-100.09743778 70.53095315 -124.61706957 71.35210934 -149.1391468 72.33960152 C-154.95913096 72.57388731 -160.77928595 72.80373675 -166.59947205 73.03294373 C-183.11689705 73.68399649 -199.63413332 74.33970371 -216.15112305 75.00170898 C-225.34654199 75.37022602 -234.54211305 75.73468966 -243.73785967 76.09493965 C-248.56287138 76.28414771 -253.38778512 76.47532318 -258.21251106 76.6716938 C-269.2471511 77.11999882 -280.28188247 77.53599042 -291.32065821 77.86898661 C-292.80068971 77.91421816 -294.28067162 77.96110644 -295.76059484 78.0097518 C-300.38236813 78.16165984 -305.0029349 78.26658399 -309.62670898 78.34350586 C-311.29390157 78.39790376 -311.29390157 78.39790376 -312.99477482 78.45340061 C-319.7363313 78.50765222 -324.44431241 77.51784927 -329.5625 72.9375 C-332.25859431 69.73070449 -333.45502825 66.67636827 -334.0625 62.5 C-333.21974983 56.49540503 -331.00050339 52.47582921 -326.875 48.0625 C-318.54863584 42.72105884 -308.11724087 43.49249206 -298.54296875 43.21337891 C-296.92654794 43.1598071 -295.31015429 43.10541047 -293.69378662 43.05025864 C-290.21281018 42.93290334 -286.73172246 42.82054307 -283.25045776 42.71207809 C-277.65111308 42.53726093 -272.05222086 42.3501954 -266.45336914 42.16030884 C-265.49885581 42.12794408 -264.54434248 42.09557932 -263.5609045 42.06223381 C-261.60776594 41.99595657 -259.6546292 41.92962599 -257.70149422 41.86324334 C-254.70689871 41.76176421 -251.71227065 41.66129232 -248.71763611 41.56097221 C-228.26395428 40.8731751 -207.81481219 40.07830687 -187.36587906 39.26273251 C-184.49941042 39.14841399 -181.63293104 39.03436844 -178.76644897 38.92038727 C-169.21646179 38.54047558 -159.66655068 38.15869822 -150.11669922 37.77539062 C-141.28799281 37.42103279 -132.4591572 37.0700225 -123.63026142 36.72041738 C-115.87210583 36.41309199 -108.11403221 36.10375496 -100.35602093 35.79280818 C-95.79508045 35.61002236 -91.23411447 35.42795788 -86.67306519 35.24790573 C-82.44974826 35.08110542 -78.22653999 34.91177723 -74.0034008 34.74053764 C-72.47002654 34.67877443 -70.93661709 34.61787696 -69.40316963 34.5579586 C-64.78813737 34.37731603 -60.17525679 34.17056635 -55.5625 33.9375 C-54.39569199 33.8826305 -53.22888397 33.827761 -52.02671814 33.77122879 C-50.95498856 33.70529903 -49.88325897 33.63936928 -48.77905273 33.57144165 C-47.85180893 33.5181048 -46.92456512 33.46476795 -45.96922302 33.40981483 C-41.63541068 32.55931237 -39.61167421 29.75101737 -37.125 26.3125 C-36.04094968 24.94875345 -34.95629567 23.58548659 -33.87109375 22.22265625 C-33.05874268 21.16522217 -33.05874268 21.16522217 -32.22998047 20.08642578 C-29.48693806 16.55139513 -26.59375943 13.15098684 -23.6875 9.75 C-23.17646729 9.12722168 -22.66543457 8.50444336 -22.13891602 7.86279297 C-15.94548886 0.53991119 -9.70426205 -2.89425359 0 0 Z " fill="#7B977F" transform="translate(706.5625,142.0625)"/>
</svg>
